<svg width="28" height="23" viewBox="0 0 28 23" fill="none" xmlns="http://www.w3.org/2000/svg">
<path d="M17.2344 0.269101C14.75 1.17379 13.1797 3.50504 13.3578 6.0566L13.4172 7.04098L12.4234 6.92066C8.80625 6.45816 5.64531 4.89098 2.96094 2.25816L1.64844 0.951914L1.3125 1.91598C0.596875 4.06598 1.05469 6.33785 2.54531 7.86598C3.34062 8.70973 3.16094 8.83004 1.79062 8.32848C1.31406 8.16754 0.895312 8.04723 0.85625 8.10816C0.717187 8.24879 1.19375 10.0769 1.57187 10.8019C2.08906 11.8082 3.14219 12.791 4.29531 13.3754L5.27031 13.8379L4.11562 13.855C3.00312 13.855 2.9625 13.8754 3.08281 14.2988C3.47969 15.605 5.05 16.9925 6.8 17.5957L8.03281 18.0175L6.95937 18.6613C5.36875 19.5879 3.5 20.1097 1.63125 20.1472C0.735937 20.1675 0 20.2472 0 20.3082C0 20.5082 2.42656 21.6332 3.83594 22.0769C8.07031 23.3832 13.1 22.8191 16.8766 20.5894C19.5609 19.0019 22.2437 15.8457 23.4969 12.7894C24.1734 11.1629 24.8484 8.18785 24.8484 6.76129C24.8484 5.83629 24.9078 5.71598 26.0203 4.61129C26.6766 3.96754 27.2922 3.26441 27.4125 3.06441C27.6125 2.6816 27.5906 2.6816 26.5781 3.02379C24.8891 3.62691 24.65 3.54723 25.4859 2.64254C26.1016 1.99879 26.8375 0.833164 26.8375 0.492539C26.8375 0.433164 26.5391 0.533164 26.2016 0.712851C25.8438 0.914414 25.0484 1.21598 24.4516 1.39566L23.3781 1.73785L22.4047 1.07223C21.8672 0.711288 21.1141 0.308163 20.7156 0.18785C19.7 -0.0933995 18.15 -0.0527745 17.2344 0.269101Z" fill="#262626"/>
</svg>
